<svg width="618" height="409" xmlns="http://www.w3.org/2000/svg">
 <defs>
  <linearGradient id="paint0_linear" x1="0.74695" y1="0.13126" x2="0.17505" y2="0.9868">
   <stop stop-color="#FF8BFA"/>
   <stop offset="1" stop-color="#72C4FF" stop-opacity="0"/>
  </linearGradient>
 </defs>
 <g>
  <title>Layer 1</title>
  <path d="m443.86634,190.09813l0.419,-71.138c0.067,-11.372 -9.351,-20.512 -20.717,-20.104l-185.703,6.659c-10.793,0.387 -19.944,-7.864 -20.671,-18.639l-4.566,-67.589c-0.707,-10.471 -9.386,-18.614 -19.88,-18.652l-171.184,-0.635c-11.029,-0.041 -20.009,8.854 -20.074,19.882l-0.408,69.432l-1.082,183.761c-0.065,11.062 8.863,20.076 19.926,20.117l275.753,1.022c11.063,0.041 19.991,9.055 19.926,20.118l-0.424,71.946c-0.065,11.063 8.863,20.077 19.926,20.118l259.154,0.96c11.029,0.041 20.009,-8.853 20.074,-19.882l0.922,-156.654c0.065,-11.062 -8.863,-20.076 -19.926,-20.117l-131.539,-0.488c-11.063,-0.041 -19.991,-9.055 -19.926,-20.117z" fill="url(#paint0_linear)" id="svg_1"/>
 </g>
</svg>