<svg width="617" height="409" xmlns="http://www.w3.org/2000/svg">
 <defs>
  <linearGradient y2="0.98384" x2="0.17561" y1="0.1335" x1="0.74618" id="paint0_linear">
   <stop stop-color="#FF8BFA"/>
   <stop stop-opacity="0" stop-color="#72C4FF" offset="1"/>
  </linearGradient>
 </defs>
 <g>
  <title>Layer 1</title>
  <path id="svg_1" fill="url(#paint0_linear)" d="m443.43812,191.1714l0.239,-71.292c0.038,-11.333 -9.339,-20.433 -20.666,-20.056l-185.771,6.194c-10.755,0.358 -19.865,-7.857 -20.617,-18.591l-4.747,-67.758c-0.731,-10.429 -9.371,-18.536 -19.826,-18.602l-171.076,-1.066c-11.068,-0.069 -20.087,8.864 -20.125,19.932l-0.232,69.29l-0.617,183.768c-0.037,11.023 8.852,19.998 19.875,20.067l275.803,1.719c11.023,0.069 19.912,9.044 19.875,20.067l-0.242,72.096c-0.037,11.023 8.853,19.998 19.876,20.067l259.01,1.614c11.068,0.069 20.087,-8.864 20.124,-19.932l0.526,-156.563c0.037,-11.023 -8.852,-19.998 -19.875,-20.067l-131.659,-0.82c-11.023,-0.069 -19.912,-9.044 -19.875,-20.067z" opacity="0.5"/>
 </g>
</svg>