<svg width="32" height="32" viewBox="0 0 32 32" fill="none" xmlns="http://www.w3.org/2000/svg">
<path d="M28.89 22C27.7066 20.137 26.3215 18.4099 24.76 16.85C24.7316 16.8146 24.7162 16.7705 24.7162 16.725C24.7162 16.6796 24.7316 16.6355 24.76 16.6C26.1037 14.766 27.2912 12.8225 28.31 10.79C28.4574 10.4992 28.5275 10.1753 28.5135 9.84956C28.4995 9.52381 28.4019 9.20714 28.23 8.93003C28.0733 8.64838 27.8443 8.41368 27.5665 8.25018C27.2887 8.08669 26.9724 8.00033 26.65 8.00003H23.65C23.2694 8.00741 22.8987 8.12332 22.5816 8.33412C22.2645 8.54492 22.0142 8.84186 21.86 9.19003C20.9887 11.1172 19.9444 12.9614 18.74 14.7V9.80003C18.7414 9.56328 18.6957 9.32862 18.6057 9.10963C18.5157 8.89065 18.3832 8.69169 18.2158 8.52428C18.0484 8.35687 17.8494 8.22433 17.6304 8.13434C17.4115 8.04435 17.1768 7.9987 16.94 8.00003H12.56C12.3051 8.00399 12.056 8.07753 11.8398 8.21269C11.6235 8.34786 11.4483 8.53952 11.333 8.76699C11.2177 8.99446 11.1668 9.24909 11.1856 9.50341C11.2045 9.75772 11.2925 10.0021 11.44 10.21L11.84 10.77C12.0546 11.0782 12.1698 11.4446 12.17 11.82V15.66C10.85 13.7072 9.80045 11.5846 9.05005 9.35003C8.91473 8.95627 8.6599 8.61456 8.3211 8.37256C7.98229 8.13056 7.57641 8.00033 7.16005 8.00003H4.71005C4.44973 8.00314 4.19347 8.06496 3.96037 8.18089C3.72727 8.29682 3.52334 8.46385 3.36378 8.66956C3.20421 8.87526 3.09313 9.11432 3.03881 9.36893C2.98449 9.62353 2.98833 9.88711 3.05005 10.14C4.40005 15.87 7.23005 20.62 10.82 23.14C11.0352 23.2929 11.3021 23.3545 11.5624 23.3114C11.8228 23.2683 12.0556 23.124 12.21 22.91C12.2873 22.8032 12.3426 22.6821 12.3729 22.5537C12.4031 22.4254 12.4077 22.2923 12.3863 22.1622C12.3649 22.0321 12.318 21.9074 12.2483 21.7955C12.1786 21.6836 12.0874 21.5866 11.98 21.51C8.84005 19.31 6.34005 15.12 5.07005 10H7.17005C8.09028 12.7959 9.47647 15.4162 11.27 17.75C11.4773 18.0149 11.7628 18.2077 12.086 18.3011C12.4091 18.3944 12.7534 18.3835 13.07 18.27C13.3949 18.1568 13.6759 17.9442 13.8733 17.6625C14.0707 17.3807 14.1745 17.044 14.17 16.7V11.82C14.1722 11.1843 14.014 10.5584 13.71 10H16.71V15.43C16.7065 15.8186 16.8308 16.1975 17.064 16.5083C17.2971 16.8192 17.626 17.0447 18 17.15C18.3629 17.2708 18.7554 17.2686 19.117 17.1439C19.4785 17.0192 19.7888 16.7788 20 16.46C21.4204 14.4336 22.6332 12.2694 23.62 10H26.42C25.4669 11.8741 24.3668 13.6697 23.13 15.37C22.8182 15.7872 22.6668 16.3027 22.7035 16.8222C22.7402 17.3418 22.9626 17.8308 23.33 18.2C24.7886 19.6698 26.1014 21.2773 27.25 23H23.9C22.8666 21.2893 21.4788 19.8197 19.83 18.69C19.5827 18.5088 19.2894 18.4005 18.9836 18.3775C18.6778 18.3546 18.3717 18.4178 18.1 18.56C17.8207 18.703 17.5867 18.9209 17.4242 19.1894C17.2617 19.4578 17.1772 19.7662 17.18 20.08V22.46C17.1855 22.599 17.1362 22.7345 17.0426 22.8374C16.9491 22.9403 16.8189 23.0023 16.68 23.01H15.82C15.5548 23.01 15.3005 23.1154 15.1129 23.3029C14.9254 23.4905 14.82 23.7448 14.82 24.01C14.82 24.2752 14.9254 24.5296 15.1129 24.7171C15.3005 24.9047 15.5548 25.01 15.82 25.01H16.68C17.0118 25.0074 17.3398 24.9393 17.6452 24.8096C17.9506 24.6799 18.2274 24.4912 18.4597 24.2543C18.692 24.0174 18.8752 23.7369 18.9988 23.429C19.1224 23.1211 19.184 22.7918 19.18 22.46V20.69C20.383 21.5949 21.4013 22.7219 22.18 24.01C22.352 24.308 22.5978 24.5565 22.8939 24.7317C23.1899 24.9069 23.5261 25.0028 23.87 25.01H27.25C27.5957 25.0109 27.9351 24.9184 28.2326 24.7424C28.53 24.5664 28.7744 24.3134 28.94 24.01C29.1099 23.7004 29.1948 23.3513 29.186 22.9983C29.1772 22.6452 29.0751 22.3008 28.89 22Z" fill="#BD4EEE"/>
</svg>
