<svg width="32" height="32" viewBox="0 0 32 32" fill="none" xmlns="http://www.w3.org/2000/svg">
<path d="M24 3H8C6.67392 3 5.40215 3.52678 4.46447 4.46447C3.52678 5.40215 3 6.67392 3 8V24C3 25.3261 3.52678 26.5979 4.46447 27.5355C5.40215 28.4732 6.67392 29 8 29H16C16.2652 29 16.5196 28.8946 16.7071 28.7071C16.8946 28.5196 17 28.2652 17 28V20C17 19.7348 16.8946 19.4804 16.7071 19.2929C16.5196 19.1054 16.2652 19 16 19H15V17H16C16.2652 17 16.5196 16.8946 16.7071 16.7071C16.8946 16.5196 17 16.2652 17 16V12.5C17 11.837 17.2634 11.2011 17.7322 10.7322C18.2011 10.2634 18.837 10 19.5 10H22V12H21C20.4696 12 19.9609 12.2107 19.5858 12.5858C19.2107 12.9609 19 13.4696 19 14V16C19 16.2652 19.1054 16.5196 19.2929 16.7071C19.4804 16.8946 19.7348 17 20 17H21.72L21.22 19H20C19.7348 19 19.4804 19.1054 19.2929 19.2929C19.1054 19.4804 19 19.7348 19 20V24C19 24.2652 19.1054 24.5196 19.2929 24.7071C19.4804 24.8946 19.7348 25 20 25C20.2652 25 20.5196 24.8946 20.7071 24.7071C20.8946 24.5196 21 24.2652 21 24V21H22C22.2284 21.0067 22.4523 20.9349 22.6342 20.7966C22.8162 20.6583 22.9452 20.4619 23 20.24L24 16.24C24.0375 16.0924 24.0407 15.9382 24.0095 15.7892C23.9783 15.6401 23.9135 15.5002 23.82 15.38C23.7227 15.2567 23.5978 15.1581 23.4554 15.0921C23.3129 15.0261 23.1569 14.9945 23 15H21V14H23C23.2652 14 23.5196 13.8946 23.7071 13.7071C23.8946 13.5196 24 13.2652 24 13V9C24 8.73478 23.8946 8.48043 23.7071 8.29289C23.5196 8.10536 23.2652 8 23 8H19.5C18.3073 8.00264 17.1643 8.4776 16.3209 9.32094C15.4776 10.1643 15.0026 11.3073 15 12.5V15H14C13.7348 15 13.4804 15.1054 13.2929 15.2929C13.1054 15.4804 13 15.7348 13 16V20C13 20.2652 13.1054 20.5196 13.2929 20.7071C13.4804 20.8946 13.7348 21 14 21H15V27H8C7.20435 27 6.44129 26.6839 5.87868 26.1213C5.31607 25.5587 5 24.7956 5 24V8C5 7.20435 5.31607 6.44129 5.87868 5.87868C6.44129 5.31607 7.20435 5 8 5H24C24.7956 5 25.5587 5.31607 26.1213 5.87868C26.6839 6.44129 27 7.20435 27 8V24C27 24.7956 26.6839 25.5587 26.1213 26.1213C25.5587 26.6839 24.7956 27 24 27H20C19.7348 27 19.4804 27.1054 19.2929 27.2929C19.1054 27.4804 19 27.7348 19 28C19 28.2652 19.1054 28.5196 19.2929 28.7071C19.4804 28.8946 19.7348 29 20 29H24C25.3261 29 26.5979 28.4732 27.5355 27.5355C28.4732 26.5979 29 25.3261 29 24V8C29 6.67392 28.4732 5.40215 27.5355 4.46447C26.5979 3.52678 25.3261 3 24 3Z" fill="#BD4EEE"/>
</svg>
