<svg width="32" height="32" viewBox="0 0 32 32" fill="none" xmlns="http://www.w3.org/2000/svg">
<path d="M20.45 13.3198C20.3269 13.3674 20.2145 13.4388 20.1191 13.53C20.0237 13.6212 19.9474 13.7303 19.8944 13.8512C19.8414 13.972 19.8128 14.1021 19.8104 14.2341C19.8079 14.366 19.8316 14.4971 19.88 14.6198C20.2095 15.4747 20.2356 16.4168 19.9538 17.2885C19.6721 18.1603 19.0996 18.9089 18.3322 19.4092C17.5647 19.9096 16.6487 20.1313 15.7374 20.0373C14.8261 19.9433 13.9746 19.5394 13.3254 18.893C12.6762 18.2465 12.2685 17.3969 12.1706 16.4859C12.0727 15.575 12.2904 14.6581 12.7874 13.8885C13.2844 13.1188 14.0305 12.5431 14.9011 12.2576C15.7716 11.9721 16.7138 11.9941 17.57 12.3198C17.818 12.414 18.0932 12.4058 18.3352 12.297C18.5771 12.1882 18.7659 11.9878 18.86 11.7398C18.9542 11.4919 18.946 11.2166 18.8372 10.9747C18.7284 10.7328 18.528 10.544 18.28 10.4498C16.9972 9.96458 15.5868 9.93349 14.2838 10.3618C12.9808 10.79 11.8638 11.6518 11.119 12.8035C10.3742 13.9553 10.0464 15.3274 10.1904 16.6914C10.3343 18.0554 10.9412 19.3289 11.91 20.2998C13.035 21.4234 14.56 22.0546 16.15 22.0546C17.74 22.0546 19.265 21.4234 20.39 20.2998C21.2138 19.4783 21.7809 18.435 22.0223 17.2969C22.2638 16.1588 22.1692 14.9751 21.75 13.8898C21.7025 13.7667 21.6311 13.6543 21.5399 13.5589C21.4487 13.4635 21.3395 13.3872 21.2187 13.3342C21.0979 13.2812 20.9677 13.2527 20.8358 13.2502C20.7039 13.2477 20.5728 13.2714 20.45 13.3198Z" fill="#BD4EEE"/>
<path d="M23 10C23.5523 10 24 9.55228 24 9C24 8.44772 23.5523 8 23 8C22.4477 8 22 8.44772 22 9C22 9.55228 22.4477 10 23 10Z" fill="#BD4EEE"/>
<path d="M28 8.99996C28.0003 7.69102 27.4872 6.43418 26.5711 5.49932C25.6549 4.56446 24.4087 4.02614 23.1 3.99996C18.4099 3.56935 13.6901 3.56935 9 3.99996C7.68766 3.99979 6.42787 4.51558 5.49245 5.43603C4.55703 6.35648 4.02099 7.60779 4 8.91996C3.63997 13.6064 3.63997 18.3135 4 23C3.99974 24.3089 4.51277 25.5657 5.42893 26.5006C6.3451 27.4355 7.59132 27.9738 8.9 28C11.26 28.22 13.63 28.34 16 28.34C18.37 28.34 20.71 28.23 23.05 28C24.3537 27.9871 25.6007 27.4655 26.5254 26.5465C27.4501 25.6274 27.9792 24.3835 28 23.08C28.38 18.3943 28.38 13.6856 28 8.99996ZM26 23C26 23.7956 25.6839 24.5587 25.1213 25.1213C24.5587 25.6839 23.7956 26 23 26H22.9C18.2776 26.4499 13.6224 26.4499 9 26C8.59921 26.0001 8.20245 25.9199 7.83316 25.7642C7.46387 25.6085 7.12953 25.3803 6.84988 25.0932C6.57024 24.8061 6.35095 24.4659 6.20498 24.0926C6.05901 23.7193 5.98931 23.3206 6 22.92C5.64999 18.2866 5.64999 13.6334 6 8.99996C5.99982 8.59831 6.08029 8.20071 6.23665 7.83074C6.39301 7.46077 6.62208 7.12596 6.91025 6.84618C7.19843 6.56639 7.53986 6.34732 7.91429 6.20196C8.28872 6.0566 8.68852 5.98791 9.09 5.99996C11.3833 5.79329 13.6833 5.68663 15.99 5.67996C18.2967 5.67329 20.6333 5.77996 23 5.99996C23.4008 5.99982 23.7975 6.07999 24.1668 6.23573C24.5361 6.39147 24.8705 6.61963 25.1501 6.90673C25.4298 7.19384 25.649 7.53407 25.795 7.90733C25.941 8.28059 26.0107 8.67932 26 9.07996C26.38 13.7122 26.38 18.3677 26 23Z" fill="#BD4EEE"/>
</svg>
