<svg width="56" height="64" viewBox="0 0 56 64" fill="none" xmlns="http://www.w3.org/2000/svg">
<g clip-path="url(#clip0)">
<path fill-rule="evenodd" clip-rule="evenodd" d="M20.6185 22.1886C21.3673 22.1874 22.0996 22.4085 22.7226 22.8238C23.3457 23.2391 23.8315 23.83 24.1186 24.5215C24.4056 25.2131 24.481 25.9743 24.3352 26.7087C24.1894 27.4432 23.829 28.1178 23.2995 28.6473C22.77 29.1768 22.0954 29.5372 21.3609 29.683C20.6265 29.8288 19.8653 29.7534 19.1737 29.4664C18.4821 29.1793 17.8913 28.6935 17.476 28.0704C17.0607 27.4474 16.8396 26.7151 16.8407 25.9663C16.8407 24.9644 17.2388 24.0035 17.9472 23.2951C18.6557 22.5866 19.6166 22.1886 20.6185 22.1886ZM40.4119 46.8066C41.5557 45.7145 42.3295 44.2922 42.6251 42.7387C42.8395 41.735 42.7544 40.6904 42.3805 39.7347H37.3965C37.7265 41.1684 37.6014 43.1142 35.8945 43.7912C31.8039 45.4241 25.4602 43.0914 20.5616 37.8287C14.8381 31.6728 13.2564 23.8385 17.0285 20.3338C21.25 16.4082 29.75 19.5032 32.8336 21.7334C28.4813 18.28 20.2715 15.9132 15.663 20.1973C11.7601 23.8271 12.6647 31.3314 17.4211 38.0563V46.158C17.4226 46.6881 17.6342 47.1961 18.0096 47.5704C18.3851 47.9448 18.8936 48.155 19.4237 48.155H23.816V44.6105C29.915 49.162 36.7309 50.2259 40.4119 46.8066ZM25.8528 40.2239V23.537H30.2507C30.7813 23.5385 31.2899 23.7499 31.6651 24.1252C32.0403 24.5004 32.2518 25.0089 32.2533 25.5396V31.0868H37.499C38.0889 31.029 38.6809 31.1754 39.1759 31.5016C39.6709 31.8278 40.0389 32.314 40.2185 32.8789L41.675 36.1674H32.2476V42.6647C29.9815 42.422 27.7975 41.6797 25.8528 40.4913V40.2353V40.2239ZM17.4211 31.0754H23.816V39.1316C22.6479 38.2536 21.559 37.2751 20.5616 36.2072C19.7248 35.3028 18.9547 34.3387 18.2574 33.3227C17.5861 32.3498 17.404 32.1166 17.4211 31.0868V31.0754Z" fill="#3FAEFF"/>
<path fill-rule="evenodd" clip-rule="evenodd" d="M35.9058 26.615C31.525 20.9256 23.0933 18.2687 17.0398 21.7506C22.8999 16.34 32.9417 21.0792 36.1277 24.8343C36.7372 25.4417 37.272 26.1197 37.7207 26.854L38.5286 24.9594H40.0193L38.5286 28.4698H37.0437C36.7347 27.8111 36.353 27.189 35.9058 26.615Z" fill="#3FAEFF"/>
<path fill-rule="evenodd" clip-rule="evenodd" d="M51.9499 36.3154C51.9439 42.6033 49.4437 48.632 44.9981 53.0787C40.5524 57.5254 34.5243 60.027 28.2365 60.0345H27.713C21.4252 60.027 15.3971 57.5254 10.9514 53.0787C6.50579 48.632 4.00567 42.6033 3.99965 36.3154V9.00631H51.9499V36.3154ZM52.809 3.23726H48.0982L44.969 4.09636V5.23424H34.7281V4.03378L31.5875 2.81625H29.0387L28.5096 2.52609C28.5339 2.46268 28.5452 2.39502 28.5429 2.32714C28.5405 2.25926 28.5246 2.19254 28.4959 2.13097C28.4672 2.06939 28.4265 2.01421 28.376 1.96871C28.3256 1.92321 28.2665 1.88832 28.2023 1.86612V0H27.8098V1.86043C27.7104 1.89945 27.6252 1.96761 27.5653 2.05594C27.5054 2.14428 27.4736 2.24868 27.4741 2.35541C27.4767 2.41187 27.4882 2.46756 27.5082 2.5204L26.9393 2.81056H24.2767L21.284 4.07361V5.21149H10.9692V4.07361L7.83999 3.20882H3.12917L0 4.07361V36.287C0.00903344 43.6341 2.93169 50.6778 8.12694 55.8731C13.3222 61.0683 20.3659 63.991 27.713 64H28.2365C35.5837 63.991 42.6273 61.0683 47.8226 55.8731C53.0178 50.6778 55.9405 43.6341 55.9495 36.287V5.79749V4.09067L52.809 3.23726Z" fill="#3FAEFF"/>
</g>
<defs>
<clipPath id="clip0">
<rect width="55.9495" height="64" fill="white"/>
</clipPath>
</defs>
</svg>
