<svg width="32" height="32" viewBox="0 0 32 32" fill="none" xmlns="http://www.w3.org/2000/svg">
<path d="M30.0001 12.0001C30.0011 10.5542 29.4536 9.16184 28.4681 8.10393C27.4825 7.04601 26.1324 6.40136 24.6901 6.30007C18.9201 6.00007 13.0601 6.00007 7.33008 6.28007C4.51008 6.28007 2.00008 9.00007 2.00008 12.0001C1.70928 14.8995 1.70928 17.8207 2.00008 20.7201C1.9974 22.1259 2.55123 23.4756 3.54057 24.4743C4.52992 25.473 5.87434 26.0395 7.28008 26.0501C10.1801 26.2101 13.0867 26.2901 16.0001 26.2901C18.9134 26.2901 21.8034 26.2134 24.6701 26.0601C26.0709 26.0576 27.4146 25.5048 28.4116 24.5209C29.4086 23.537 29.9791 22.2007 30.0001 20.8001C30.4096 17.881 30.4096 14.9191 30.0001 12.0001ZM28.0001 20.6301C27.9952 20.6699 27.9952 20.7102 28.0001 20.7501C27.9975 21.1922 27.9076 21.6294 27.7357 22.0367C27.5638 22.444 27.3132 22.8134 26.9983 23.1237C26.6834 23.434 26.3103 23.679 25.9005 23.8449C25.4907 24.0107 25.0522 24.094 24.6101 24.0901C18.854 24.3901 13.0862 24.3901 7.33008 24.0901C6.88455 24.0862 6.44424 23.9938 6.03477 23.8182C5.6253 23.6426 5.25484 23.3873 4.94496 23.0672C4.63507 22.747 4.39195 22.3685 4.22973 21.9535C4.06752 21.5386 3.98945 21.0955 4.00008 20.6501C3.71466 17.834 3.71466 14.9962 4.00008 12.1801C4.00458 12.1435 4.00458 12.1066 4.00008 12.0701C3.99233 11.1314 4.33409 10.2235 4.95885 9.52295C5.58361 8.8224 6.44668 8.37937 7.38008 8.28007C10.2401 8.15007 13.1201 8.09007 16.0001 8.09007C18.8801 8.09007 21.7601 8.15007 24.6201 8.28007H24.6701C26.3801 8.28007 28.0001 10.1201 28.0001 12.0701C27.9951 12.12 27.9951 12.1702 28.0001 12.2201C28.3916 15.003 28.3916 17.8271 28.0001 20.6101V20.6301Z" fill="#BD4EEE"/>
<path d="M20.7902 15.5101L13.6502 11.8301C13.5333 11.7697 13.4056 11.7329 13.2746 11.7218C13.1435 11.7107 13.0115 11.7256 12.8861 11.7655C12.7607 11.8054 12.6445 11.8697 12.5439 11.9545C12.4434 12.0394 12.3606 12.1432 12.3002 12.2601C12.2397 12.377 12.203 12.5046 12.1919 12.6357C12.1808 12.7668 12.1956 12.8988 12.2356 13.0242C12.2755 13.1495 12.3397 13.2658 12.4246 13.3663C12.5094 13.4669 12.6133 13.5497 12.7302 13.6101L18.1602 16.4001L14.1602 18.4701V16.4001C14.1602 16.1349 14.0548 15.8805 13.8673 15.693C13.6797 15.5055 13.4254 15.4001 13.1602 15.4001C12.8949 15.4001 12.6406 15.5055 12.453 15.693C12.2655 15.8805 12.1602 16.1349 12.1602 16.4001V20.1201C12.1602 20.3853 12.2655 20.6397 12.453 20.8272C12.6406 21.0148 12.8949 21.1201 13.1602 21.1201C13.3201 21.1208 13.4778 21.083 13.6202 21.0101L20.7602 17.2901C20.9232 17.2056 21.0598 17.0779 21.1551 16.9209C21.2504 16.7639 21.3005 16.5837 21.3002 16.4001C21.3034 16.2195 21.2578 16.0414 21.168 15.8847C21.0782 15.728 20.9476 15.5986 20.7902 15.5101Z" fill="#BD4EEE"/>
</svg>
